<?xml version="1.0" standalone="no"?>
<!DOCTYPE svg PUBLIC "-//W3C//DTD SVG 1.1//EN" "http://www.w3.org/Graphics/SVG/1.1/DTD/svg11.dtd" >
<!--
2013-9-30: Created.
-->
<svg>
<metadata>
Created by iconfont
</metadata>
<defs>

<font id="iconfont" horiz-adv-x="1024" >
  <font-face
    font-family="iconfont"
    font-weight="500"
    font-stretch="normal"
    units-per-em="1024"
    ascent="896"
    descent="-128"
  />
    <missing-glyph />
    
    <glyph glyph-name="tongxunlu" unicode="&#58965;" d="M674.086 465.93h257.666c14.145 0 25.611 11.467 25.611 25.611s-11.466 25.611-25.611 25.611h-257.666c-14.145 0-25.611-11.467-25.611-25.611s11.466-25.611 25.611-25.611zM382.102 362.782c110.583 0 200.549 89.857 200.549 200.305s-89.966 200.305-200.549 200.305-200.549-89.857-200.549-200.305 89.966-200.305 200.549-200.305zM382.102 712.167c82.338 0 149.326-66.877 149.326-149.081s-66.988-149.082-149.326-149.082-149.325 66.879-149.325 149.082 66.987 149.081 149.325 149.081zM381.577 356.779c-83.965 0-162.92-32.355-222.318-91.106-59.475-58.825-92.229-137.059-92.229-220.289 0-5.337 0.137-10.726 0.409-16.021l1.246-24.299h625.782l1.246 24.299c0.272 5.295 0.409 10.684 0.409 16.021 0 83.231-32.754 161.464-92.228 220.289-59.398 58.751-138.353 91.106-222.319 91.106zM118.482 56.286c5.802 138.425 121.594 249.27 263.096 249.27s257.293-110.845 263.095-249.27h-526.191zM931.753 284.054h-257.666c-14.145 0-25.611-11.466-25.611-25.611s11.466-25.611 25.611-25.611h257.666c14.145 0 25.611 11.466 25.611 25.611s-11.466 25.611-25.611 25.611zM931.753 400.604h-386.81c-14.145 0-25.611-11.467-25.611-25.611s11.466-25.612 25.611-25.612h386.81c14.145 0 25.611 11.467 25.611 25.612s-11.466 25.611-25.611 25.611z"  horiz-adv-x="1024" />

    
    <glyph glyph-name="wode" unicode="&#58913;" d="M742.685963 376.861416c54.991452 52.826136 89.416496 126.906342 89.416496 209.002105 0 159.975505-130.144082 290.119587-290.119587 290.119587s-290.119587-130.144082-290.119587-290.119587c0-78.229712 31.262004-149.194974 81.775468-201.427592C164.091242 313.857477 51.582819 150.225699 51.582819-30.148391c0-18.841114 15.273868-34.131355 34.131355-34.131355 18.841114 0 34.131355 15.291265 34.131355 34.131355 0 159.309332 103.913675 303.619042 258.616082 359.082238 5.377474 1.928932 9.850345 5.166673 13.467733 9.099239 43.848671-26.650987 95.096868-42.289152 150.053528-42.289152 49.266054 0 95.655594 12.421914 136.334062 34.177404 0.707105-0.308015 1.336438-0.722454 2.074242-0.98749C835.076186 273.469628 939.007257 129.159918 939.007257-30.148391c0-18.841114 15.273868-34.131355 34.131355-34.131355 18.841114 0 34.131355 15.291265 34.131355 34.131355C1007.269967 143.974321 902.466016 302.560176 742.685963 376.861416zM320.127018 585.863521c0 122.327046 99.520621 221.855854 221.855854 221.855854s221.855854-99.528807 221.855854-221.855854-99.520621-221.855854-221.855854-221.855854S320.127018 463.535451 320.127018 585.863521z"  horiz-adv-x="1024" />

    
    <glyph glyph-name="duihuakuangkuai" unicode="&#59074;" d="M512 896C228.8 896 0 696 0 448c0-140.8 75.2-267.2 192-348.8L192-128l224 136C448 3.2 480 0 512 0c283.2 0 512 200 512 448C1024 696 795.2 896 512 896z"  horiz-adv-x="1024" />

    
    <glyph glyph-name="tongxunlu1" unicode="&#59022;" d="M729.545176 34.942069 161.760662 34.942069c-56.57553 0-97.788164 37.830607-97.788164 89.975221l0 16.539698c0 45.051055 31.769564 88.153736 77.344552 104.751762l139.000797 61.787228c18.034748 5.860475 35.351136 13.346983 39.388079 16.991999l0 0c-1.36509 0-1.042749 11.330046-4.296863 17.5804-1.172709 2.279926-4.102435 6.510274-7.942903 12.238742-24.411993 37.372166-75.390038 115.108644-75.390038 188.284247 0 140.953266 95.379301 255.66896 212.633818 255.66896 117.383454 0 212.891691-114.715695 212.891691-255.66896 0-67.321268-45.24446-135.484717-72.196299-176.240957-7.557116-11.265578-13.805424-19.922748-15.956414-25.263383-4.683672-16.078187-3.446495-22.264073-3.446495-22.331611 1.623987 2.408863 17.186428-7.221472 28.253484-11.587919l156.121733-60.872393c44.98761-16.142655 76.955696-59.570747 76.955696-105.402585l0-16.540721C827.334363 72.772676 786.121729 34.942069 729.545176 34.942069L729.545176 34.942069zM444.700733 744.91191c-86.534865 0-157.090804-89.956801-157.090804-200.557782 0-56.68093 46.750767-128.093377 66.808592-158.606321 5.125741-7.957229 9.819646-13.493316 11.577686-16.815991 13.473873-26.105564 10.907421-65.706491-5.007037-83.790358-14.657838-16.178471-48.261167-27.878954-62.007239-32.088836l-139.071406-62.010309c-25.120121-9.204639-42.086537-30.901801-42.086537-52.340065l0-16.703427c0-24.527626 22.093181-33.208333 41.098024-33.208333l573.464887 0c19.002796 0 41.097 8.680706 41.097 33.208333l0 16.703427c0 22.094204-16.966417 44.12394-40.181141 52.537564L574.961472 252.920616c-8.217149 3.155876-36.621059 14.859429-51.351552 29.52443-15.783475 15.127536-18.34788 39.915082-7.827269 75.55479 3.155876 10.389628 10.586103 21.632693 22.883173 40.244586 23.673166 35.7052 63.321164 95.474468 63.321164 146.109706C601.986989 654.955108 531.496541 744.91191 444.700733 744.91191L444.700733 744.91191zM444.700733 744.91191M713.139531 482.741885c-16.277732 0-29.361725 8.265244-29.361725 25.778106 0 17.319457 13.083993 25.585725 29.361725 25.585725l215.416188 0c16.276708 0 28.515451-8.266267 28.515451-25.585725 0-17.577331-14.126742-25.778106-30.274514-25.778106L713.139531 482.741885 713.139531 482.741885 713.139531 482.741885zM713.139531 482.741885M756.888941 365.222331c-16.146749 0-29.359678 8.271384-29.359678 25.715685 0 17.447371 13.21293 25.718755 29.359678 25.718755l172.059728 0c16.271592 0 27.600615-8.271384 27.600615-25.718755 0-17.444301-12.302187-25.715685-28.514427-25.715685L756.888941 365.222331 756.888941 365.222331 756.888941 365.222331zM756.888941 365.222331M811.057655 254.480134c-16.143679 0-29.231765 8.266267-29.231765 25.716708 0 17.448394 13.088086 25.586748 29.231765 25.586748l118.407784 0c16.276708 0 28.514427-8.138354 28.514427-25.586748 0-17.450441-13.083993-25.716708-29.488615-25.716708L811.057655 254.480134 811.057655 254.480134 811.057655 254.480134zM811.057655 254.480134"  horiz-adv-x="1024" />

    
    <glyph glyph-name="wo" unicode="&#58884;" d="M664.861 314.901c73.008 51.573 120.689 136.614 120.689 232.797 0 157.317-127.523 284.839-284.833 284.839-157.309 0-284.831-127.523-284.831-284.839 0-99.533 51.066-187.127 128.416-238.055-144.496-63.027-246.365-205.535-250.359-372.294h40.701c4.298 161.874 110.796 298.273 257.328 347.033 33.51-13.856 70.232-21.517 108.747-21.517 41.828 0 81.548 9.017 117.327 25.212 152.565-45.228 264.68-184.552 269.093-350.727h40.705c-4.112 171.571-111.829 317.473-262.982 377.551zM500.717 303.565c-134.833 0-244.141 109.304-244.141 244.133 0 134.839 109.309 244.139 244.141 244.139 134.835 0 244.146-109.3 244.146-244.139 0-134.83-109.311-244.133-244.146-244.133z"  horiz-adv-x="1024" />

    
    <glyph glyph-name="faxian" unicode="&#58970;" d="M512-127.658667a509.866667 509.866667 0 0 0-361.856 149.802667A509.866667 509.866667 0 0 0 0.341333 384 509.866667 509.866667 0 0 0 150.144 745.856 509.866667 509.866667 0 0 0 512 895.658667a509.866667 509.866667 0 0 0 361.856-149.802667A509.866667 509.866667 0 0 0 1023.658667 384a509.866667 509.866667 0 0 0-149.802667-361.856A509.866667 509.866667 0 0 0 512-127.658667z m0 976.789334A462.698667 462.698667 0 0 1 183.104 712.896 462.698667 462.698667 0 0 1 46.869333 384a462.698667 462.698667 0 0 1 136.234667-328.896 465.408 465.408 0 0 1 147.797333-99.754667A461.696 461.696 0 0 1 512-81.130667a462.698667 462.698667 0 0 1 328.896 136.234667 465.408 465.408 0 0 1 99.754667 147.797333c24.277333 57.408 36.48 118.165333 36.48 181.098667s-12.224 123.690667-36.48 181.098667a461.098667 461.098667 0 0 1-99.754667 147.797333A462.698667 462.698667 0 0 1 512 849.130667z m275.669333-189.461334a11.669333 11.669333 0 0 1-14.570666 1.514667l-325.034667-209.877333a11.52 11.52 0 0 1-3.52-3.52l-209.728-324.885334a11.626667 11.626667 0 0 1 1.514667-14.570666 11.648 11.648 0 0 1 8.192-3.349334 12.650667 12.650667 0 0 1 6.357333 1.834667l325.034667 209.877333a11.52 11.52 0 0 1 3.52 3.52l209.728 324.885334a11.626667 11.626667 0 0 1-1.493334 14.570666zM512 335.296c-26.773333 0-48.704 21.930667-48.704 48.704s21.930667 48.704 48.704 48.704 48.704-21.930667 48.704-48.704-21.930667-48.704-48.704-48.704z"  horiz-adv-x="1024" />

    
    <glyph glyph-name="saoyisao" unicode="&#58880;" d="M65.183 679.176c0 0-22.682 149.58 192.772 153.814 215.46 4.234 238.137-182.030 238.137-182.030h181.439c0 0 42.517-8.469 41.104-59.27-1.417-50.801-35.438-49.385-35.438-49.385l-423.824-0.010c0 0-51.026 1.417-52.443-57.847-1.418-59.27 9.935-148.144-60.951-148.169-48.199-0.020-49.611 57.864-49.611 57.864l-31.185 285.033zM958.954 93.609c0 0 22.68-149.585-192.775-153.814-215.46-4.235-238.137 182.029-238.137 182.029h-181.439c0 0-42.522 8.469-41.103 59.27 1.416 50.798 35.437 49.395 35.437 49.395h423.82c0 0 51.024-1.415 52.449 57.855 1.418 59.265-9.936 148.136 60.951 148.162 48.19 0.013 49.612-57.855 49.612-57.855l31.185-285.042zM958.954 93.609z"  horiz-adv-x="1024" />

    
    <glyph glyph-name="xiangce" unicode="&#58886;" d="M1332.493187 896H299.815221C247.917581 896 205.889 854.311731 205.889 802.92456v-837.84912c0-51.387172 42.028581-93.07544 93.926221-93.07544h1032.677966c51.89764 0 93.926221 41.688269 93.926221 93.07544V802.92456c0 51.387172-42.028581 93.07544-93.926221 93.07544m0-930.92456H299.815221V802.92456h1032.677966v-837.84912m-798.032569 512c51.89764 0 93.926221 41.688269 93.926221 93.075441 0 51.387172-42.028581 93.07544-93.926221 93.07544-51.727484 0-93.926221-41.688269-93.926221-93.07544 0-51.387172 42.198737-93.07544 93.926221-93.075441M1003.921569 523.528082L725.716185 143.22898l-144.292456 194.148222-234.645397-325.84912h938.921901L1003.921569 523.528082m0 0zM401.568627 681.60319h262.040545v-222.904619H401.568627z"  horiz-adv-x="1633" />

    
    <glyph glyph-name="tongxunlu2" unicode="&#58885;" d="M870.807603-57.774080000000026H51.797043l-43.1616 27.5456-2.63168 7.9872c-1.28 3.94752-12.25728 39.24992-0.82944 75.98592l1.14688 3.73248 2.31936 3.18976c26.66496 36.56704 93.35808 73.17504 163.93728 111.94368 64.65024 35.47648 162.31936 89.10336 162.92864 117.71904l0.05632 26.97728c-61.696 59.62752-95.52896 140.79488-95.52896 229.84704 0 137.7792 26.27072 278.6048 221.29664 278.62528 195.04128-0.0256 221.29152-140.87168 221.29152-278.62528 0-89.07776-33.90976-170.28096-95.53408-229.81632l0.08704-27.48416c0.56832-28.02688 98.2784-81.72544 162.92864-117.21216 70.528-38.78912 137.22112-75.37152 163.8912-111.91296l2.2784-3.21024 1.19808-3.712c11.392-36.736 0.4352-72.09472-0.87552-76.01664l-2.61632-7.96672-43.17184-27.5968zM761.577523 584.40704h263.05024v-48.00512h-263.05024zM809.777203 417.3568h214.85056v-47.98464h-214.85056zM880.986163 249.70752000000005h143.6416v-47.43168h-143.6416z"  horiz-adv-x="1024" />

    
    <glyph glyph-name="shoucang" unicode="&#58904;" d="M473.97213968750003 337.83462375a39.3305025 39.3305025 0 0 1-18.226329375 26.620035c-85.1361478125 51.3215090625-170.9917565625 101.2040971875-256.8473653125 151.5663253125L94.09704687499999 577.4149387499999a50.122408125 50.122408125 0 0 1-2.3982018750000003-8.3937046875v-427.35948a34.05445875 34.05445875 0 0 1 16.067949375-23.9820140625q173.1501375-103.122658125 347.499375-204.8063953125a176.747439375 176.747439375 0 0 1 17.506870312500002-7.91406375 65.4708965625 65.4708965625 0 0 1 1.6787409375 9.1131646875c0.71946 141.97351968750002 0.71946 282.987759375-0.4796409375 423.762178125zM930.8294975000001 548.8763428125c0 7.43442375 0 15.108668437499999-1.6787409375 23.982013125a119.9100675 119.9100675 0 0 1-11.2715465625-4.7964028125c-119.9100675-69.78765937499999-237.90157406249998-139.09567781249999-356.132900625-209.8426171875a39.0906815625 39.0906815625 0 0 1-13.6697475-29.258056875v-400.9792659375c0-6.95478375 0-13.9095675 1.1991009375000001-23.982013125 8.6335246875 4.5565828125 15.108668437499999 7.43442375 21.10417125 11.0317265625 113.91456375000001 66.9098175 227.5893084375 134.05945499999999 341.7436921875 200.2498125a34.2942796875 34.2942796875 0 0 1 19.66525125 34.294278750000004c-0.9592809375000001 133.579815-0.9592809375000001 266.44017-0.9592799999999999 399.300525zM882.8654703125001 648.1618781249999c-119.9100675 70.267299375-239.820135 140.05495875-358.2912815625 210.80189906249998a25.900575 25.900575 0 0 1-30.9367978125-1.4389209374999998L149.9751378125 655.3564828125c-6.23532375-3.597301875-11.9910065625-7.674244687499999-18.9457903125-12.2308275a93.2900325 93.2900325 0 0 1 8.8733446875-6.95478375c119.9100675-70.267299375 239.820135-140.77441875 359.7302025-210.08243812499998a35.973020625000004 35.973020625000004 0 0 1 29.977516875 0c95.928054375 55.878091875 191.8561078125 112.71546375 289.2230821875 169.313015625l74.5840621875 43.887084375a95.928054375 95.928054375 0 0 1-10.552085625 8.8733446875z"  horiz-adv-x="1024" />

    
    <glyph glyph-name="wallet" unicode="&#58881;" d="M1280.021547 8.958288000000039a152.744757 152.744757 0 0 0-8.959888-51.626021 133.971659 133.971659 0 0 0-26.026341-42.666134 121.171819 121.171819 0 0 0-39.679504-29.439632 116.051883 116.051883 0 0 0-49.492715-10.666533h-1023.9872a124.585109 124.585109 0 0 0-50.772699 10.666533 134.824981 134.824981 0 0 0-42.666133 29.439632 140.371579 140.371579 0 0 0-29.012971 42.666134A134.824981 134.824981 0 0 0 0.037547 8.958288000000039V759.028912A136.531627 136.531627 0 0 0 37.583744 856.307696 119.891835 119.891835 0 0 0 128.035947 895.9872h1023.9872a119.891835 119.891835 0 0 0 90.878864-39.679504A136.531627 136.531627 0 0 0 1280.021547 759.028912V554.658133h-319.996a121.171819 121.171819 0 0 1-90.878864-39.252842 133.971659 133.971659 0 0 1-37.546198-96.425462 176.211131 176.211131 0 0 1 15.359808-69.119136 127.9984 127.9984 0 0 1 37.546198-46.506085 117.331867 117.331867 0 0 1 75.519056-20.906405H1280.021547v-273.916576M896.026347 419.406491a67.839152 67.839152 0 0 0 18.773098 49.919376 61.865893 61.865893 0 0 0 90.025542 0 67.839152 67.839152 0 0 0 19.19976-49.919376 70.39912 70.39912 0 0 0-18.346438-49.066054 60.159248 60.159248 0 0 0-90.025541 0 70.39912 70.39912 0 0 0-19.626421 49.066054"  horiz-adv-x="1280" />

    
    <glyph glyph-name="tongxunlu3" unicode="&#58906;" d="M759.518-38.751H113.506c-64.371 0-111.262 43.042-111.262 102.371v18.819c0 51.258 36.147 100.3 88.001 119.184l158.151 70.3c20.521 6.668 40.223 15.186 44.816 19.333-1.553 0-1.187 12.891-4.889 20.002-1.334 2.594-4.667 7.407-9.038 13.926-27.775 42.519-85.777 130.967-85.777 214.224 0 160.374 108.522 290.896 241.931 290.896 133.556 0 242.224-130.522 242.224-290.896 0-76.595-51.478-154.15-82.144-200.522-8.598-12.818-15.707-22.668-18.155-28.745-5.329-18.293-3.922-25.331-3.922-25.409 1.847 2.742 19.555-8.215 32.147-13.185l177.632-69.259c51.185-18.367 87.557-67.777 87.557-119.924v-18.82c0.001-59.255-46.889-102.298-111.261-102.298z m-324.09 807.789c-98.458 0-178.735-102.351-178.735-228.191 0-64.49 53.191-145.742 76.014-180.459 5.831-9.053 11.173-15.354 13.172-19.133 15.33-29.702 12.411-74.759-5.697-95.334-16.677-18.409-54.91-31.722-70.55-36.511l-158.231-70.554c-28.581-10.473-47.886-35.158-47.886-59.551v-19.003c0-27.907 25.137-37.785 46.761-37.785h652.476c21.621 0 46.759 9.877 46.759 37.785v19.005c0 25.138-19.305 50.204-45.717 59.777l-180.159 70.177c-9.349 3.59-41.665 16.908-58.426 33.593-17.958 17.213-20.876 45.414-8.906 85.965 3.59 11.822 12.045 24.613 26.036 45.789 26.934 40.625 72.045 108.629 72.045 166.241 0 125.839-80.202 228.191-178.957 228.191z m0 0zM740.852 470.747c-18.521 0-33.407 9.404-33.407 29.33 0 19.707 14.886 29.111 33.407 29.111h245.095c18.518 0 32.444-9.406 32.444-29.111 0-19.999-16.074-29.33-34.445-29.33H740.852z m49.777-133.712c-18.371 0-33.405 9.411-33.405 29.259 0 19.851 15.034 29.263 33.405 29.263h195.766c18.513 0 31.403-9.411 31.403-29.263 0-19.847-13.997-29.259-32.443-29.259H790.629z m61.632-126c-18.368 0-33.26 9.405-33.26 29.26 0 19.852 14.892 29.113 33.26 29.113h134.721c18.519 0 32.444-9.261 32.444-29.113 0-19.854-14.886-29.26-33.552-29.26H852.261z m0 0z"  horiz-adv-x="1024" />

    
    <glyph glyph-name="search1" unicode="&#58909;" d="M1006.08115892-62.56131121999999L753.26460509 190.25524260999998a421.25982511 421.25982511 0 0 1 101.26426866 274.50187439C854.52887375 698.05804762 664.65691142 888 431.28599075 888S8.06643842 698.11637283 8.06643842 464.757117s189.86029748-423.35953341 423.21955233-423.35953341a421.87807266 421.87807266 0 0 1 274.50187538 101.26426866l252.82821768-252.81655284a33.60816506 33.60816506 0 1 1 47.46507511 47.59338937z m-930.8707124 527.31842822c0 196.32273314 159.81113728 356.08721006 356.07554423 356.08721006s356.08721006-159.81113728 356.08721006-356.08721006-159.75281208-356.05221455-356.08721006-356.05221455S75.21044652 268.43438386 75.21044652 464.757117z m0 0"  horiz-adv-x="1024" />

    
    <glyph glyph-name="xiangce1" unicode="&#58882;" d="M320.91459 506.001994L17.01562 184.747092l19.738119-150.077767h947.089398l16.675308 76.229977-253.532735 223.585244-137.486209-168.454636 2.041875-23.481555-10.209372 13.272183-280.417414 350.181456zM971.932203 696.236623H52.067797c-22.460618 0-40.837488-17.355932-40.837488-38.795613v-616.646062c0-21.099369 18.376869-38.795613 40.837488-38.795613h919.864406c22.460618 0 40.837488 17.355932 40.837488 38.795613V657.44101c0 21.439681-18.376869 38.795613-40.837488 38.795613zM959.340645 48.622134H64.659355V649.613825h894.68129V48.622134z"  horiz-adv-x="1024" />

    
    <glyph glyph-name="wo2" unicode="&#58892;" d="M631.466667 305.493333c112.64 44.373333 191.146667 157.013333 191.146667 283.306667 0 170.666667-136.533333 307.2-307.2 307.2-170.666667 0-307.2-136.533333-307.2-307.2 0-126.293333 78.506667-238.933333 191.146667-283.306667C197.973333 257.70666700000004 44.373333 83.626667 34.133333-128l955.733333 0C979.626667 80.21333300000003 829.44 254.29333299999996 631.466667 305.493333z"  horiz-adv-x="1024" />

    
    <glyph glyph-name="tongxunlu4" unicode="&#58887;" d="M729.6 32H160c-57.6 0-96 38.4-96 96v19.2c0 44.8 32 89.6 76.8 102.4l140.8 64c19.2 0 32 6.4 38.4 12.8 0 0 0 12.8-6.4 19.2 0 0-6.4 6.4-6.4 12.8-25.6 32-76.8 108.8-76.8 185.6 0 140.8 96 256 211.2 256 115.2 0 211.2-115.2 211.2-256 0-70.4-44.8-134.4-70.4-179.2-6.4-6.4-12.8-19.2-12.8-25.6-6.4-12.8-6.4-19.2-6.4-19.2s19.2-6.4 25.6-12.8l153.6-64c44.8-19.2 76.8-57.6 76.8-102.4v-12.8c6.4-57.6-32-96-89.6-96zM441.6 742.4c-89.6 0-160-89.6-160-198.4 0-57.6 44.8-128 64-160 6.4-6.4 12.8-12.8 12.8-19.2 12.8-25.6 12.8-64-6.4-83.2-6.4-12.8-38.4-25.6-51.2-25.6l-140.8-64c-25.6-6.4-44.8-32-44.8-51.2v-19.2c0-25.6 19.2-32 38.4-32h576c19.2 0 38.4 6.4 38.4 32v19.2c0 19.2-19.2 44.8-38.4 51.2L576 256c-6.4 0-38.4 12.8-51.2 32-19.2 6.4-19.2 32-6.4 70.4 0 12.8 12.8 19.2 25.6 38.4 25.6 38.4 64 96 64 147.2-6.4 108.8-76.8 198.4-166.4 198.4z m268.8-262.4c-19.2 0-32 6.4-32 25.6 0 19.2 12.8 25.6 32 25.6h217.6c19.2 0 25.6-6.4 25.6-25.6 0-19.2-12.8-25.6-32-25.6h-211.2z m44.8-115.2c-19.2 0-32 6.4-32 25.6 0 19.2 12.8 25.6 32 25.6h172.8c19.2 0 25.6-6.4 25.6-25.6 0-19.2-12.8-25.6-25.6-25.6h-172.8z m57.6-108.8c-19.2 0-32 6.4-32 25.6 0 19.2 12.8 25.6 32 25.6h121.6c19.2 0 25.6-6.4 25.6-25.6 0-19.2-12.8-25.6-32-25.6h-115.2z"  horiz-adv-x="1024" />

    
    <glyph glyph-name="faxian1" unicode="&#58907;" d="M919.38929778 558.92195555c-22.33230222 52.79971555-54.30272 100.22001778-95.02264889 140.93994667-40.71765333 40.71765333-88.13454222 72.68807111-140.93767111 95.02151111-54.66908445 23.12192-112.73784889 34.84558222-172.59292445 34.84558222-59.85621333 0-117.92611555-11.72366222-172.59406222-34.84558222C285.44113778 772.55111111 238.02311111 740.57955555 197.30432 699.86190222c-40.72106667-40.72106667-72.69034667-88.13909333-95.02151111-140.93994667-23.12192-54.66794667-34.84672-112.73557333-34.84672-172.59292444s11.7248-117.92725333 34.84672-172.5952c22.33230222-52.79971555 54.30044445-100.21774222 95.02151111-140.93994666 40.71992889-40.71992889 88.13795555-72.68920889 140.93653333-95.02037334 54.67022222-23.12192 112.73898667-34.84672 172.5952-34.84672 59.85735111 0 117.92611555 11.72366222 172.59406222 34.84672 52.80085333 22.33230222 100.21774222 54.30158222 140.9388089 95.02037334 40.71992889 40.72106667 72.68920889 88.13909333 95.02037333 140.93994666 23.12305778 54.66794667 34.84672 112.73671111 34.84672 172.5952S942.51235555 504.25514667 919.38929778 558.92195555z m-154.88568889 48.96995556L602.63537778 304.30776889000003a23.63505778 23.63505778 0 0 0-9.77692445-9.77578667l-303.58528-161.87164444a23.808 23.808 0 0 0-11.15932444-2.78869333 23.58044445 23.58044445 0 0 0-16.78677334 6.94954666c-7.43651555 7.43765333-9.10791111 18.66865778-4.15857777 27.94837334L419.03217778 468.35712a23.64529778 23.64529778 0 0 0 9.77578667 9.77578667l303.58528 161.86481778a23.81368889 23.81368889 0 0 0 11.15932444 2.79096888c6.33969778 0 12.30165333-2.46897778 16.78677333-6.94840888 7.43537778-7.43651555 9.10904889-18.66752 4.16426667-27.94723556zM510.83605333 343.51786667c-11.26855111 0-22.30044445 4.56931555-30.27171555 12.53831111-7.97013333 7.97127111-12.53944889 19.00544-12.53944889 30.27285333s4.56931555 22.30044445 12.53831111 30.27171556c7.97013333 7.96899555 19.00430222 12.53831111 30.27285333 12.53831111 11.26968889 0 22.30272-4.56931555 30.27171556-12.53831111 7.96899555-7.96899555 12.53831111-19.00316445 12.53831111-30.27171556s-4.56931555-22.30385778-12.53831111-30.27171556c-7.96899555-7.97013333-19.00316445-12.53944889-30.27171556-12.53944888z"  horiz-adv-x="1024" />

    
    <glyph glyph-name="qiabao" unicode="&#58889;" d="M1187.559304 702.751713V842.020032c0 29.688983-24.290986 53.979968-53.979968 53.979968L53.979968 805.313653c-8.096995 0-16.193991-2.159199-23.211386-5.397997l1156.790722-97.163943zM1133.579336-128L53.979968-37.313653c-29.688983 0-53.979968 24.290986-53.979968 53.979968v647.759621c0 29.688983 24.290986 53.979968 53.979968 53.979968l1079.599368-90.686347c29.688983 0 53.979968-24.290986 53.979968-53.979968v-647.759621c0-29.688983-24.290986-53.979968-53.979968-53.979968z"  horiz-adv-x="1187" />

    
    <glyph glyph-name="qianbao" unicode="&#58890;" d="M1308.444444 839.111111c0 31.288889-25.6 56.888889-56.888888 56.888889H56.888889C25.6 896 0 870.4 0 839.111111v-910.222222c0-31.288889 25.6-56.888889 56.888889-56.888889h1194.666667c31.288889 0 56.888889 25.6 56.888888 56.888889v227.555555h-341.333333c-125.155556 0-227.555556 102.4-227.555555 227.555556s102.4 227.555556 227.555555 227.555556h341.333333V839.111111zM967.111111 384m-113.777778 0a113.777778 113.777778 0 1 1 227.555556 0 113.777778 113.777778 0 1 1-227.555556 0Z"  horiz-adv-x="1308" />

    
    <glyph glyph-name="fujinderen" unicode="&#58896;" d="M525.606515 331.987998m-26.335191 0a26.335191 26.335191 0 1 1 52.670382 0 26.335191 26.335191 0 1 1-52.670382 0ZM299.123875 764.324046m-131.675954 0a131.675954 131.675954 0 1 1 263.351908 0 131.675954 131.675954 0 1 1-263.351908 0ZM738.043721 764.324046m-131.675954 0a131.675954 131.675954 0 1 1 263.351907 0 131.675954 131.675954 0 1 1-263.351907 0ZM785.885984 315.309044V413.18817H928.973853c35.991427 0 65.837977 29.84655 65.837977 65.837977s-29.84655 65.837977-65.837977 65.837976H95.026147C59.034719 544.864123 29.18817 515.456494 29.18817 479.026147s29.84655-65.837977 65.837977-65.837977h142.21003v-97.879126L38.405486-29.243035c-17.995714-31.163309-7.461637-71.982855 24.140592-89.978568s71.982855-7.461637 89.978568 24.140591l150.988427 261.596228 150.988427-261.596228c10.972996-18.434634 29.40763-29.84655 49.597943-32.480068h0.43892c1.755679 0 3.072439-0.43892 4.828118-0.43892h5.267038c1.755679 0 3.072439 0 4.828118 0.43892h0.43892c19.751393 2.194599 38.624946 13.606515 49.597943 32.480068l150.988427 261.596228 150.988427-261.596228c17.995714-31.163309 58.376339-42.136305 89.978568-24.140591s42.136305 58.376339 24.140592 89.978568l-199.70853 344.552079z m-131.675954 0l-142.64895-246.672953-142.64895 246.672953V413.18817h284.85898v-97.879126z"  horiz-adv-x="1024" />

    
    <glyph glyph-name="gouwu" unicode="&#58897;" d="M527.872 328.704m-30.72 0a30.72 30.72 0 1 1 61.44 0 30.72 30.72 0 1 1-61.44 0ZM921.6-128H102.4c-28.16 0-51.2 23.04-51.2 51.2V844.8C51.2 872.96 74.24 896 102.4 896h819.2c28.16 0 51.2-23.04 51.2-51.2v-921.6c0-28.16-23.04-51.2-51.2-51.2zM256 640m-51.2 0a51.2 51.2 0 1 1 102.4 0 51.2 51.2 0 1 1-102.4 0ZM768 640m-51.2 0a51.2 51.2 0 1 1 102.4 0 51.2 51.2 0 1 1-102.4 0ZM512 153.6c-155.136 0-281.6 126.464-281.6 281.6V640h51.2v-204.8c0-126.976 103.424-230.4 230.4-230.4s230.4 103.424 230.4 230.4V640h51.2v-204.8c0-155.136-126.464-281.6-281.6-281.6z"  horiz-adv-x="1024" />

    
    <glyph glyph-name="biaoqing" unicode="&#58942;" d="M512.03499609 383.96500390999995m-427.44260196 0a427.44260197 427.44260197 0 1 1 854.88520393 0 427.44260197 427.44260197 0 1 1-854.88520393 0ZM774.99583731 329.09108821999996c7.48916987 0 13.57849406-6.85923922 12.31863372-14.27841594-22.18753991-131.44542403-136.48486541-231.46433359-274.15959897-231.46433359s-252.04205222 100.08890175-274.15959897 231.46433359c-1.25986034 7.41917769 4.82946481 14.27841691 12.31863372 14.27841594h523.6819305zM289.94962241 499.52218975a63.13299963 55.08389225 90 1 1 110.16778353 0 63.13299963 55.08389225 90 1 1-110.16778353 0ZM618.84315269 499.52218975a63.13299963 55.08389225 90 1 1 110.16778353 0 63.13299963 55.08389225 90 1 1-110.16778353 0Z"  horiz-adv-x="1024" />

    
    <glyph glyph-name="kanyikan" unicode="&#58946;" d="M328.47357687 663.0319621900001L450.86968156 804.12276844c22.01368781 25.332675 61.5028575 24.92626781 82.90693594-0.94828219l109.32336094-131.94665906 192.77217281-40.77612282c33.93494719-7.17984937 52.56191344-43.8241725 38.33768438-75.45614906l-72.74677219-161.88527531 73.76278875-182.88294656c13.41141563-33.2576025-8.46680344-70.10512969-44.02737656-74.30466375l-194.19459469-22.96197L535.26677469-31.787765629999967c-21.06540563-29.87088094-65.02504781-30.8868975-87.44514188-2.03203218L332.53764219 114.85726406000003l-180.85091344 21.33634313c-34.68002531 4.06406531-56.55824438 39.35370094-44.84019 72.27263156l61.23192 171.842235-62.85754594 176.38044188c-11.17618031 31.42877344 8.26359938 65.43145406 41.04706125 71.66302125l182.20560281 34.68002531zM489.952445 597.1263675l145.29034031 50.12347406c5.0123475 1.76109469 10.36336688-1.42242281 11.24391469-6.70570875L670.53242094 498.91145156l120.49954125-108.30734531c4.06406531-3.65765906 3.72539344-10.16016375-0.74507906-13.34368125L669.24546688 290.01848625 646.35123125 127.65907030999995c-0.81281344-5.62195688-6.70570781-8.94094406-11.92125844-6.70570875l-149.62534406 64.27996969-137.83955438-63.80582812c-5.21555062-2.43843937-11.31164906 0.88054781-12.12446156 6.63797343l-21.60728156 157.82120907-122.32837125 91.23827062c-4.40273719 3.31898719-4.60594125 9.82149187-0.40640625 13.41141563l116.43547594 99.09546375 27.70337906 151.11550125c0.94828219 5.14781625 6.29930156 8.26359938 11.24391469 6.57023906L489.952445 597.1263675z"  horiz-adv-x="1024" />

    
    <glyph glyph-name="xiangce2" unicode="&#58956;" d="M969.23446 662.921329v-588.837931c0-33.740775-27.38277-61.123545-61.123545-61.123545H115.889085c-33.740775 0-61.123545 27.38277-61.123545 61.123545v588.837931c0 33.740775 27.38277 61.123545 61.123545 61.123545h792.22183c33.740775 0 61.123545-27.38277 61.123545-61.123545zM914.46892 641.896564v-546.716151c0-14.08876-11.415508-25.576519-25.576519-25.576518H135.107599c-14.08876 0-25.576519 11.415508-25.576519 25.576518V641.896564c0 14.08876 11.415508 25.576519 25.576519 25.576519h753.857052c14.08876-0.07225 25.504269-11.487758 25.504269-25.576519zM728.352783 363.30036L641.07472 275.516546c-3.757003-3.757003-4.262753-9.753757-1.228251-14.088761l82.94306-120.007338L609.067946 244.087773 378.951528 448.916673c-4.407253 3.901503-11.054258 3.684753-15.172512-0.433501l-264.435193-264.435193c-2.095252-2.095252-3.251252-4.913004-3.251253-7.803006v-101.366824c0-6.141254 4.985254-11.054258 11.054258-11.054259H916.853172c6.141254 0 11.054258 4.985254 11.054258 11.054259V153.269456c0 2.745502-1.011501 5.346504-2.817752 7.369505L744.392295 362.794609c-4.190503 4.840754-11.560008 4.985254-16.039512 0.505751z"  horiz-adv-x="1024" />

    
    <glyph glyph-name="yaoyiyao" unicode="&#58958;" d="M320.2194592 667.87527467l385.87308267 115.98541866 187.58040426-649.74954346-395.42935573-99.41607254zM943.1497824 89.18125120000002l-30.9808224 114.9064832-27.05042027 102.19047573-6.6277376 23.19708374-27.6669536 102.807008-2.77440213 10.48107413-27.05042027 102.80700907-5.00933653 17.64827946-25.97148587 96.71873707-39.22696213 146.4267744c-6.08827093 23.19708373-30.36428907 36.99202667-53.5613728 30.9808224L306.5786496 732.3801215999999c-23.7365504-6.08827093-37.60856107-29.82482133-30.9808224-53.63843947l14.950944-56.33577386 36.99202667-138.7201024L371.7770976 318.99421867l64.65898027-242.60604374 30.9808224-114.3670176c6.62773867-23.7365504 30.36428907-37.60856107 54.1779072-31.52028906l390.11175146 104.9648768c23.7365504 6.1653376 37.5314944 30.5184224 31.44322347 53.71550613z m-109.97421333 51.403504l-300.02075307-80.68885973c-17.1088128-4.3928032-34.83415893 5.54880427-39.22696213 23.19708373L388.88590933 472.66526507c13.25547627-1.0789344 26.51095253-1.0789344 39.76642987-0.53946667l33.67815787 1.61840107c27.05042027 1.69546773 51.94297173 17.1088128 64.65898026 41.46189653 8.86267307 17.64827947 2.77440213 38.68749547-14.33441066 48.62910187l-120.45528747 67.43338346c-13.25547627 7.16720533-28.20642027 11.02054187-42.54083093 11.6370752 3.3138688 9.94160747 11.6370752 17.64827947 22.11814933 20.4226816l299.48128533 80.149392c17.64827947 5.00933653 35.3736256-5.54880427 39.76642987-22.65761706l20.4226816-76.83552214-39.22696213-10.4810752c-22.65761707-6.08827093-37.60856107-26.51095253-37.60856107-49.16856853 0-3.85333653 0.53946667-8.3232064 1.69546773-12.17654293 7.16720533-26.51095253 34.83415893-42.54083093 61.34511147-35.3736256l39.76642987 10.48107413 4.3928032-17.1088128-64.58191467-17.72534613c-26.51095253-7.16720533-42.54083093-34.29469227-35.3736256-61.34511147l1.69546773-5.54880427c7.16720533-26.51095253 34.83415893-42.54083093 61.34511147-35.3736256l64.65898133 17.1088128 2.77440107-10.48107413-34.2946912-9.4021408c-26.51095253-7.16720533-42.54083093-34.83415893-35.3736256-61.34511147l1.69546773-5.54880426c7.16720533-27.05042027 34.29469227-42.54083093 61.34511147-35.3736256l34.2946912 8.86267306 6.088272-23.19708373-34.29469227-9.40213973c-26.51095253-7.16720533-42.54083093-34.83415893-35.3736256-61.34511254l1.61840107-5.5488032c7.16720533-27.05042027 34.83415893-42.54083093 61.34511147-35.37362666L853.67531733 187.98078933l2.2349344-8.32320533c4.8552032-16.95467947-5.62587093-34.6800256-22.73468266-39.0728288zM527.066544 515.206096c-12.7160096-24.27601813-37.60856107-39.7664288-64.65898027-41.46189653l-33.67815786-1.61840107c-13.25547627-0.53946667-26.51095253-0.53946667-39.7664288 0.53946667l-40.30589654 150.81957653c-1.69546773 6.62773867-1.0789344 13.25547627 1.0789344 19.34374827 14.33441067-0.53946667 29.28535467-4.3928032 42.54083094-11.6370752l120.45528853-67.43338347c17.03174613-9.8645408 23.12001707-30.82668907 14.3344096-48.5520352zM656.3845056 572.15840427c-1.0789344 3.85333653-1.69546773 8.3232064-1.69546773 12.17654293 0 22.65761707 14.950944 43.08029867 37.60856106 49.16856853l39.22696214 10.4810752 25.97148586-96.71873813-39.76642986-10.48107413c-26.5880192-7.16720533-54.17790613 8.86267307-61.34511147 35.3736256zM724.8968224 410.2412192c-26.51095253-7.16720533-54.17790613 8.86267307-61.34511147 35.3736256l-1.69546773 5.54880427c-7.16720533 27.05042027 8.86267307 54.17790613 35.3736256 61.34511146l64.65898133 17.64827947 27.6669536-102.807008-64.65898133-17.1088128zM724.28028907 340.64996799999994l-1.69546774 5.54880427c-7.16720533 26.51095253 8.86267307 54.17790613 35.3736256 61.34511146l34.2946912 9.4021408 27.6669536-102.80700906-34.2946912-8.86267307c-27.05042027-7.244272-54.10083947 8.24613973-61.34511146 35.3736256zM853.59825067 188.13492372999997l-34.29469227-8.86267413c-26.51095253-7.16720533-54.17790613 8.3232064-61.34511147 35.37362667l-1.61840106 5.54880426c-7.16720533 26.51095253 8.86267307 54.17790613 35.3736256 61.34511147l34.29469226 9.40213973 27.58988694-102.807008zM527.066544 515.206096c-12.7160096-24.27601813-37.60856107-39.7664288-64.65898027-41.46189653l-33.67815786-1.61840107c-13.25547627-0.53946667-26.51095253-0.53946667-39.7664288 0.53946667-7.706672 1.0789344-15.49041173 2.23493547-23.19708374 3.85333653l-38.1480288 7.16720427L371.85416427 318.99421867l65.198448-242.06657707-0.53946774-0.53946667c-7.706672-8.86267307-81.76779307-93.40486827-135.9456992-135.40623253-17.64827947-13.79494293-42.54083093-12.7160096-59.64964373 2.2349344l-166.849456 144.80837333c-13.79494293 11.6370752-13.79494293 32.59922347-0.53946667 44.7757664l156.90784854 143.11290454c7.706672 7.16720533 11.02054187 17.64827947 9.40213973 28.20642026l-20.96214827 110.51368107c-3.85333653 19.3437472-6.08827093 39.22696213-6.08827093 59.11017707 0 49.1685696 20.96214827 96.1792704 56.95230827 129.85742826l17.10881173 15.49041067c1.0789344 1.0789344 2.23493547 2.23493547 3.85333653 3.31386987 16.56934507 13.79494293 37.60856107 20.96214827 59.11017707 20.4226816 14.33441067-0.53946667 29.28535467-4.3928032 42.54083093-11.6370752l120.45528854-67.43338347c16.95467947-9.8645408 23.0429504-30.82668907 14.25734293-48.5520352zM876.79533333 617.47363733c0-22.11814933-14.33441067-42.00136427-36.99202666-48.0896352l-23.7365504-6.08827093-58.57070934-16.0298784-39.76642986-10.48107413c-26.51095253-7.16720533-54.17790613 8.86267307-61.34511147 35.3736256-1.0789344 3.85333653-1.69546773 8.3232064-1.69546773 12.17654293 0 22.65761707 14.950944 43.08029867 37.60856106 49.16856853l39.22696214 10.4810752 58.57070933 16.0298784 23.7365504 6.08827094c27.05042027 7.16720533 54.17790613-8.3232064 61.34511147-35.37362667 1.0789344-4.3928032 1.61840107-8.86267307 1.61840106-13.25547627zM878.49080213 451.16364907l-30.36428906-8.3232064-58.57070934-15.49041067-64.65898133-17.1088128c-26.51095253-7.16720533-54.17790613 8.86267307-61.34511147 35.3736256l-1.69546773 5.54880427c-7.16720533 27.05042027 8.86267307 54.17790613 35.3736256 61.34511146l64.65898133 17.64827947 59.110176 15.49041173 30.36428907 8.3232064c26.51095253 7.16720533 54.17790613-8.86267307 61.34511147-35.37362666l1.0789344-6.08827094c7.244272-26.5880192-8.24613973-54.17790613-35.29655894-61.34511146zM902.7668192 336.18009813000003l-24.27601707-6.6277376-58.5707104-15.49041173-34.2946912-8.86267307c-27.05042027-7.16720533-54.17790613 8.3232064-61.34511146 35.3736256l-1.69546774 5.54880427c-7.16720533 26.51095253 8.86267307 54.17790613 35.3736256 61.34511147l34.2946912 9.4021408 58.5707104 15.49041066 24.27601707 6.62773867c26.51095253 7.16720533 54.17790613-8.86267307 61.34511147-35.37362667l1.6954688-6.08827093c7.244272-26.51095253-8.7856064-54.17790613-35.37362667-61.34511147zM918.7966976 205.7832032l-6.6277376-1.61840107-58.57070933-16.0298784-34.29469227-8.86267413c-26.51095253-7.16720533-54.17790613 8.3232064-61.34511147 35.37362667l-1.61840106 5.54880426c-7.16720533 26.51095253 8.86267307 54.17790613 35.3736256 61.34511147l34.29469226 9.40213973 59.110176 15.49041174 6.08827094 1.61840106c27.05042027 7.16720533 54.17790613-8.86267307 61.34511253-35.3736256l1.61840107-5.54880426c7.16720533-27.05042027-8.7856064-54.17790613-35.37362667-61.34511147z"  horiz-adv-x="1024" />

    
    <glyph glyph-name="youxi" unicode="&#58959;" d="M467.51993191 790.47992631v-205.63719703c-78.18133059-17.28808291-140.12446206-79.30120656-157.48253716-157.97248344H103.84025925c-32.89635234 0-49.34452803 39.75559156-26.10710434 63.06300744L404.45692544 816.58703163c23.30741588 23.30741588 63.06300744 6.78924703 63.06300647-26.10710532zM467.51993191 181.757426v-205.63719703c0-32.89635234-39.75559156-49.34452803-63.06300647-26.10710531L77.73315491 276.73689419000004c-23.23742369 23.23742369-6.78924703 63.06300744 26.10710434 63.06300743h206.1971355c17.35807509-78.81126125 79.30120656-140.75439175 157.48253716-158.04247562zM944.86700037 276.66690200000005l-326.65377834-326.23382522c-23.23742369-23.23742369-62.99301525-6.78924703-62.99301428 26.10710531V181.757426c78.74126906 17.28808291 140.12446206 79.30120656 157.48253716 157.97248344h206.12714331c32.82636016 0 49.27453584-39.75559156 26.03711215-63.06300744zM918.75989603 426.87024584H712.63275272c-17.28808291 78.74126906-78.74126906 140.68439956-157.48253716 157.97248344V790.0599731899999c0 32.89635234 39.75559156 49.34452803 62.99301428 26.10710531L944.79700819 489.93325328c23.30741588-23.30741588 6.85923922-63.06300744-26.03711216-63.06300744z"  horiz-adv-x="1024" />

    
    <glyph glyph-name="search" unicode="&#58883;" d="M418.689057 547.4853123299999l-3.540253 1.228251c-20.519015 7.008255-32.584774 28.177521-28.105271 49.419036L425.697312 782.22573433c8.597756 40.82128 50.502787 65.314048 90.240316 52.670289 41.61603-13.22176 61.268045-60.762295 41.25478-99.488323L470.709095 568.36557733c-9.753757-18.857264-31.862273-27.74402-52.020038-20.880265zM507.628872 460.35174833l-0.21675 5.852255c-0.867001 21.964016 14.955761 41.03803 36.703027 44.144782l339.358498 49.274536c41.688281 6.069004 80.197559-23.553517 85.038312-65.386298 5.274254-45.156283-30.634022-84.532562-76.151555-83.448811l-342.898752 8.381006c-22.614267 0.50575-40.96578 18.568264-41.83278 41.18253zM689.915755-26.68585767000002L457.848585 306.31463533c-13.29401 19.074014-8.959007 45.373033 9.826008 59.100544l3.757002 2.745502c17.556763 12.860509 41.977281 10.548508 56.860792-5.346504l276.211952-297.164468c29.550272-31.790023 25.359769-82.00381-8.959006-108.519579-33.379524-25.721019-81.49806-18.351513-105.629578 16.184012zM207.285402-14.25884867000002c-38.870528 16.184012-56.138291 61.773795-37.570028 99.560573l129.761095 265.085444c9.970507 20.302265 33.885275 29.405772 54.837791 20.880265 19.868765-8.092006 30.634022-29.622522 25.287518-50.430537l-73.550554-285.893459c-11.054258-42.988781-57.727792-66.253299-98.765822-49.202286zM283.725958 441.92798533l-156.349115-2.456502c-39.231779-0.578-69.865801 33.885275-64.591547 72.755803 5.129754 37.859028 42.049531 62.857546 79.113808 53.60954l151.725111-37.931278c20.880265-5.202004 34.680025-25.070768 32.223524-46.456784l-0.1445-1.445001c-2.384252-21.458266-20.374515-37.786778-41.977281-38.075778z"  horiz-adv-x="1024" />

    
    <glyph glyph-name="tongxunlu-copy" unicode="&#58888;" d="M711.602525 508.208906l215.391628 0c16.918321 0 29.658484-8.594749 29.658484-26.744107 0-18.154475-14.712073-26.749224-31.629371-26.749224L711.602525 454.715575c-16.925485 0-30.656207 8.594749-30.656207 26.749224C680.946318 499.615181 694.677041 508.208906 711.602525 508.208906zM956.088796 358.900346c0-18.151405-12.748349-26.752294-29.661553-26.752294L757.275751 332.148052c-16.925485 0-30.65723 8.597819-30.65723 26.752294 0 18.149359 13.731746 26.743084 30.65723 26.743084l170.132842 0C944.324868 385.64343 956.088796 377.049704 956.088796 358.900346zM800.847106 81.61404200000004c0-39.784098-32.308847-64.12446-72.02643-64.12446L466.867592 17.48958200000004l-84.297918 0-245.941412 0c-39.711444 0-72.024383 24.337291-72.024383 64.12446l0 17.287735c0 36.45426 26.839275 68.769246 61.099566 81.065294l146.643871 65.364707c0 0 39.749306 12.218276 50.631144 24.411993 7.239891 8.121981 9.473769 34.901905 0.296759 52.481282-9.174963 17.577331-83.47825 114.289999-83.47825 195.409528 0 130.822534 85.99149 236.876965 192.06127 236.876965 106.073874 0 192.058201-106.054431 192.058201-236.876965 0-84.695984-83.380012-177.934528-90.234117-200.878077-6.859221-22.943548-7.41283-40.902572 0.333598-48.523133 12.050454-11.843746 43.062771-23.88806 43.062771-23.88806l162.670893-63.391772c34.262338-12.301164 61.10059-45.601594 61.10059-82.055854L800.847106 81.61404200000004 800.847106 81.61404200000004zM926.918429 216.700693L813.853327 216.700693c-16.921391 0-30.653137 8.594749-30.653137 26.752294 0 18.147312 13.731746 26.743084 30.653137 26.743084l114.049522 0c16.921391 0 29.647227-8.594749 29.647227-26.743084C957.549054 225.29851199999996 943.837774 216.700693 926.918429 216.700693z"  horiz-adv-x="1024" />

    
    <glyph glyph-name="tongxunlu5" unicode="&#58945;" d="M63.488-55.296c-34.816 0-63.488 28.672-63.488 63.488v123.904l10.24 10.752c37.888 37.888 110.592 68.096 163.84 90.624 18.432 7.68 34.816 14.336 46.08 19.968 48.128 24.064 85.504 37.376 108.544 44.544-20.48 26.112-47.104 67.584-61.44 118.272-16.896 12.8-30.72 31.744-39.424 55.808-12.288 33.28-16.896 83.456 6.656 123.904-10.24 98.816 8.704 175.104 55.808 227.328C333.824 871.424 397.824 896 480.256 896s146.432-24.576 189.952-72.704c47.104-52.224 66.048-129.024 55.808-227.84 23.552-39.936 18.944-90.112 6.656-123.392-8.704-24.064-22.528-43.008-39.424-55.808-14.336-50.176-40.96-91.648-61.44-118.272 23.04-7.168 59.392-20.48 106.496-43.52 11.776-5.632 28.16-12.288 47.616-20.48l0.512-0.512c53.248-21.504 125.952-51.2 163.328-87.552l10.752-10.24v-128c0-34.816-28.672-63.488-63.488-63.488H63.488z m826.88 70.144v90.624c-80.896 69.632-258.048 121.856-301.056 130.56l-16.896 3.584-7.68 15.872c-7.168 14.336-9.216 37.376-9.728 44.032l-1.024 14.848 9.728 11.264c14.848 16.896 51.712 62.464 65.024 120.832l3.584 16.384 15.36 7.68c7.168 3.584 14.336 12.8 18.944 25.6 7.68 21.504 8.704 51.712-4.608 68.608l-8.704 11.264 1.536 15.872c3.584 34.816 13.824 128-37.376 184.832-29.696 32.768-75.776 49.664-137.728 49.664-61.952 0-108.032-16.896-137.728-49.664-50.688-56.832-40.96-149.504-37.376-184.32l1.536-15.872-9.216-11.264c-13.312-16.896-12.288-47.104-4.608-68.608 4.608-12.8 11.776-22.528 18.944-25.6l15.36-7.168 4.096-16.896c13.312-58.368 50.176-103.936 65.024-120.832l9.728-10.752-1.024-14.848c-0.512-6.656-2.56-29.696-9.728-43.52l-7.68-15.36-17.408-3.584c-30.208-6.144-215.04-56.32-301.568-134.144v-87.552h822.272zM811.008 613.888c-19.456 0-34.816 15.872-34.816 34.816 0 19.456 15.872 34.816 34.816 34.816h177.664c19.456 0 34.816-15.872 34.816-34.816 0-19.456-15.872-34.816-34.816-34.816h-177.664zM860.16 483.328c-19.456 0-34.816 15.872-34.816 34.816s15.872 34.816 34.816 34.816h129.024c19.456 0 34.816-15.872 34.816-34.816s-15.872-34.816-34.816-34.816H860.16zM909.312 359.424c-19.456 0-34.816 15.872-34.816 34.816s15.872 34.816 34.816 34.816h79.872c19.456 0 34.816-15.872 34.816-34.816s-15.872-34.816-34.816-34.816h-79.872z"  horiz-adv-x="1024" />

    
    <glyph glyph-name="pengyouquan" unicode="&#59060;" d="M512.74 892.587c-19.425 0-38.515-1.14-57.377-3.304a504.166 504.166 0 0 1-131.905-33.38S666.682 517.456 675.775 505.04V865.812c-10.23 3.65-20.794 6.612-31.362 9.346C602.266 886.436 558.186 892.587 512.741 892.587z m0 0M871.076 745.632c-13.865 13.783-28.293 26.198-42.95 38.165a513.12 513.12 0 0 1-117.02 69.372s2.496-480.962 0-496.11l256.199 255.286c-4.653 9.684-9.998 19.367-15.562 28.71-21.821 37.14-48.514 72.451-80.667 104.577z m0 0M983.665 571.795S644.079 229.813 631.583 220.703h362.083c3.631 10.25 6.703 20.729 9.434 31.211 11.36 42.039 17.49 85.668 17.49 130.895 0 19.367-1.133 38.393-3.29 57.187-5.346 46.476-17.047 90.443-33.635 131.799z m0 0M480.02 182.88l256.195-255.294a393.308 393.308 0 0 1 28.856 15.493 498.156 498.156 0 0 1 105.319 80.429c13.63 13.554 26.358 28.14 38.29 42.837 28.857 36.219 52.146 75.407 69.527 116.538-0.106-0.003-482.738-2.512-498.187-0.003z m0 0M348.57 262.963v-360.779c10.223-3.642 20.79-6.608 31.361-9.339a504.064 504.064 0 0 1 131.448-17.428c19.425 0 38.516 1.136 57.371 3.304A503.945 503.945 0 0 1 700.662-87.9c-0.004-0.004-342.89 338.445-352.092 350.863z m0 0M312.552 413.566L56.358 158.276c4.655-9.683 9.997-19.37 15.56-28.706 21.59-37.594 48.511-72.905 80.665-105.038 13.636-13.78 28.293-26.198 42.95-38.158 36.352-28.71 75.663-51.944 117.02-69.376 0 0.338-2.496 481.297 0 496.568z m0 0M20.91 515.516A497.63 497.63 0 0 1 3.413 384.628a500.55 500.55 0 0 1 3.294-57.184c5.226-46.144 16.586-90.112 33.52-131.464 0 0 339.247 341.982 352.081 350.863H30.341a365.998 365.998 0 0 1-9.43-31.327z m0 0M256.54 822.985a498.558 498.558 0 0 1-105.32-80.428c-13.857-13.786-26.357-28.14-38.283-42.837-28.86-36.223-52.152-75.64-69.533-116.88 0 0 482.628 2.506 498.196 0L285.4 838.137c-9.769-4.676-19.429-9.912-28.86-15.152z m0 0"  horiz-adv-x="1024" />

    
    <glyph glyph-name="tongxunlu6" unicode="&#58891;" d="M687.43190674 493.16798378l189.30904805 0c14.86961807 0 26.06702695-7.55397862 26.06702695-23.50556279 0-15.95608154-12.93053291-23.51006016-27.79925185-23.51006015L687.43190674 446.15236084c-14.87591455 0-26.94393193 7.55397862-26.94393194 23.51006015C660.48797481 485.61490518 672.55599307 493.16798378 687.43190674 493.16798378zM902.31241836 361.93975722000005c0-15.9533833-11.20460362-23.51275839-26.06972432-23.51275839L727.57439053 338.42699883c-14.87591455 0-26.94483105 7.55667685-26.94483105 23.51275839 0 15.95158506 12.06891739 23.50466367 26.94483105 23.50466367l149.53081816 1e-8C891.97302852 385.4444209 902.31241836 377.89134141 902.31241836 361.93975722000005zM765.86952675 118.23109160000001c0-34.96649239-28.39644756-56.35938867-63.30447948-56.35938867L472.33284453 61.87170292999997l-74.08996699-1e-8-216.15944415 0c-34.90263633 0-63.30268037 21.39019717-63.30268037 56.35938868l0 15.19429834c0 32.03987695 23.58920654 60.44172011 53.70079044 71.24879355l128.88621474 57.44944951c0 0 34.93591347 10.73871914 44.50002891 21.45585323 6.36318545 7.13845987 8.32655479 30.67550244 0.26082334 46.12612676-8.06393232 15.44882607-73.36955566 100.45019443-73.36955566 171.74665547 0 114.98074277 75.57845801 208.19264502 168.80385058 208.19264501 93.22899082 0 168.80115323-93.21190224 168.80115322-208.19264501 0-74.43982969-73.28321367-156.38776875-79.30732939-176.55299737-6.02861221-20.16522773-6.51518261-35.94952617 0.29320137-42.64728486 10.59121934-10.40954238 37.84813857-20.99536523 37.84813857-20.99536524l142.97246455-55.71542461c30.113383-10.81156992 53.70169043-40.07952598 53.70169043-72.11940292L765.86952675 118.23109160000001 765.86952675 118.23109160000001zM876.67440049 236.95959345999995L777.30077568 236.95959345999995c-14.87231631 0-26.94123369 7.55397862-26.94123369 23.51275839 0 15.94978594 12.06891739 23.50466367 26.94123369 23.50466367l100.2388377 0c14.87231631 0 26.0571331-7.55397862 26.0571331-23.50466367C903.59584825 244.51627030999998 891.54491856 236.95959345999995 876.67440049 236.95959345999995z"  horiz-adv-x="1024" />

    
    <glyph glyph-name="shezhi" unicode="&#58915;" d="M512 0A384 384 0 1 0 512 768a384 384 0 0 0 0-768z m0 128a256 256 0 1 1 0 512 256 256 0 0 1 0-512zM133.312 320H64a64 64 0 1 0 0 128h69.312a386.56 386.56 0 0 1 0-128z m65.664 286.528l-49.024 49.024a64 64 0 0 0 90.496 90.496l49.024-49.024A386.176 386.176 0 0 1 199.04 606.528zM448 762.688V832a64 64 0 1 0 128 0v-69.312a386.56 386.56 0 0 1-128 0z m286.528-65.664l49.024 49.024a64 64 0 1 0 90.496-90.496l-49.024-49.024a386.176 386.176 0 0 1-90.496 90.496zM890.688 448H960a64 64 0 0 0 0-128h-69.312a386.56 386.56 0 0 1 0 128z m-65.664-286.528l49.024-49.024a64 64 0 1 0-90.496-90.496l-49.024 49.024a386.176 386.176 0 0 1 90.496 90.496zM576 5.312V-64a64 64 0 0 0-128 0v69.312a386.56 386.56 0 0 1 128 0z m-286.528 65.664l-49.024-49.024a64 64 0 0 0-90.496 90.496l49.024 49.024c24.96-34.944 55.552-65.6 90.496-90.496zM448 896m64 0l0 0q64 0 64-64l0-64q0-64-64-64l0 0q-64 0-64 64l0 64q0 64 64 64ZM448 64m64 0l0 0q64 0 64-64l0-64q0-64-64-64l0 0q-64 0-64 64l0 64q0 64 64 64ZM1024 448m0-64l0 0q0-64-64-64l-64 0q-64 0-64 64l0 0q0 64 64 64l64 0q64 0 64-64ZM192 448m0-64l0 0q0-64-64-64l-64 0q-64 0-64 64l0 0q0 64 64 64l64 0q64 0 64-64Z"  horiz-adv-x="1024" />

    


  </font>
</defs>
</svg>
